<svg xmlns="http://www.w3.org/2000/svg" width="150" height="210" fill="none" viewBox="0 0 150 210"><path fill="#000" fill-rule="evenodd" d="M79.515.586c15.848 1.46 29.399 7.283 41.266 16.932 1.859 1.511 6.373 5.183 7.698 6.81 6.979 8.569 11.774 15.623 15.752 27.788 13.609 41.609-5.414 54.653-25.971 83.511-6.884 9.663-5.782 13.252-7.876 25.7-1.803 10.716-14.658 7.828-25.476 7.831-11.164.003-22.334.075-33.498.096-24.943.045-1.357-16.757-30.932-44.103L10.1 111.038C-5.696 81.929-2.262 46.857 19.706 24.473c2.358-2.402 5.681-6.18 8.166-8.146C39.696 6.957 59.26-1.28 79.515.587m-.855 9.277c-15.42-1.422-32.892 4.17-45.003 13.766-2.491 1.973-5.032 5.057-7.301 7.369-19.786 20.16-21.237 50.828-8.36 75.052l9.474 12.883c8.163 7.694 14.7 16.618 17.675 27.578.912 3.357 1.4 6.645 1.813 10.086.085.703.206 2.064.4 3.098 1.287.218 3.195.244 4.035.242 11.17-.02 22.342-.091 33.513-.094 2.668-.002 13.444.807 16.294-.075 2.166-12.875 1.358-18.155 9.473-29.546 19.932-27.981 36.784-38.275 24.704-75.21-3.344-10.224-7.438-16.595-14.092-24.765-1.564-1.754-4.461-3.939-6.382-5.5-10.653-8.663-22.527-13.62-36.243-14.884m-4.603 190.329c4.317.002 11.15.067 15.178-1.57 2.856-1.16 3.762-3.289 4.379-6.241.221-1.057.423-2.626.51-4.142l-41.178-.124c.245 1.391.605 2.861.797 3.618.938 3.701 2.413 6.234 6.137 7.444 4.139 1.343 9.87 1.013 14.177 1.015m-.005 9.316c-10.58.006-25.1 1.246-29.34-15.487-2.825-11.147-1.34-15.176 6.662-15.226l44.457.133c5.341.055 6.748-.078 7.452 4.71.432 2.953.062 7.717-.55 10.648-2.982 14.276-14.1 15.24-28.68 15.222m-4.116-114.45c-1.041-.996-1.365-1.664-2.437-2.699-4.004-3.87-1.322.028-8.146-8.11-2.74-3.267-6.754-11.354-13.082-6.98-4.324 4.46 5.651 10.408 14.129 20.41 1.954 2.305 5.091 7.744 10.228 7.201 4.428-.469 6.72-4.969 9.437-8.462 2.421-3.113 3.809-3.24 8.775-9.29a275 275 0 0 1 4.156-4.936l13.371-13.723c6.045-5.464 7.378-7.105 5.156-11.958-8.966-2.696-9.561 6.436-17.301 12.499-3.446 2.7-6.495 7.037-9.402 10.524-2.161 2.593-2.95 2.51-5.108 4.752z" clip-rule="evenodd"/><path stroke="#000" stroke-miterlimit="22.926" stroke-width=".64" d="M79.515.586c15.848 1.46 29.399 7.283 41.266 16.932 1.859 1.511 6.373 5.183 7.698 6.81 6.979 8.569 11.774 15.623 15.752 27.788 13.609 41.609-5.414 54.653-25.971 83.511-6.884 9.663-5.782 13.252-7.876 25.7-1.803 10.716-14.658 7.828-25.476 7.831-11.164.003-22.334.075-33.498.096-24.943.045-1.357-16.757-30.932-44.103L10.1 111.038C-5.696 81.929-2.262 46.857 19.706 24.473c2.358-2.402 5.681-6.18 8.166-8.146C39.696 6.957 59.26-1.28 79.515.587Zm-.855 9.277c-15.42-1.422-32.892 4.17-45.003 13.766-2.491 1.973-5.032 5.057-7.301 7.369-19.786 20.16-21.237 50.828-8.36 75.052l9.474 12.883c8.163 7.694 14.7 16.618 17.675 27.578.912 3.357 1.4 6.645 1.813 10.086.085.703.206 2.064.4 3.098 1.287.218 3.195.244 4.035.242 11.17-.02 22.342-.091 33.513-.094 2.668-.002 13.444.807 16.294-.075 2.166-12.875 1.358-18.155 9.473-29.546 19.932-27.981 36.784-38.275 24.704-75.21-3.344-10.224-7.438-16.595-14.092-24.765-1.564-1.754-4.461-3.939-6.382-5.5-10.653-8.663-22.527-13.62-36.243-14.884Zm-4.603 190.329c4.317.002 11.15.067 15.178-1.57 2.856-1.16 3.762-3.289 4.379-6.241.221-1.057.423-2.626.51-4.142l-41.178-.124c.245 1.391.605 2.861.797 3.618.938 3.701 2.413 6.234 6.137 7.444 4.139 1.343 9.87 1.013 14.177 1.015Zm-.005 9.316c-10.58.006-25.1 1.246-29.34-15.487-2.825-11.147-1.34-15.176 6.662-15.226l44.457.133c5.341.055 6.748-.078 7.452 4.71.432 2.953.062 7.717-.55 10.648-2.982 14.276-14.1 15.24-28.68 15.222Zm-4.116-114.45c-1.041-.996-1.365-1.664-2.437-2.699-4.004-3.87-1.322.028-8.146-8.11-2.74-3.267-6.754-11.354-13.082-6.98-4.324 4.46 5.651 10.408 14.129 20.41 1.954 2.305 5.091 7.744 10.228 7.201 4.428-.469 6.72-4.969 9.437-8.462 2.421-3.113 3.809-3.24 8.775-9.29a275 275 0 0 1 4.156-4.936l13.371-13.723c6.045-5.464 7.378-7.105 5.156-11.958-8.966-2.696-9.561 6.436-17.301 12.499-3.446 2.7-6.495 7.037-9.402 10.524-2.161 2.593-2.95 2.51-5.108 4.752z" clip-rule="evenodd"/></svg>