<?xml version="1.0" encoding="UTF-8"?>
<!DOCTYPE svg PUBLIC "-//W3C//DTD SVG 1.1//EN" "http://www.w3.org/Graphics/SVG/1.1/DTD/svg11.dtd">
<!-- Creator: CorelDRAW -->
<?xml-stylesheet href="ic-assistant.css" type="text/css"?>
<svg xmlns="http://www.w3.org/2000/svg" xml:space="preserve" width="86.6986mm" height="86.6986mm" version="1.1" style="shape-rendering:geometricPrecision; text-rendering:geometricPrecision; image-rendering:optimizeQuality; fill-rule:evenodd; clip-rule:evenodd"
viewBox="0 0 8669.86 8669.86"
 xmlns:xlink="http://www.w3.org/1999/xlink"
 xmlns:xodm="http://www.corel.com/coreldraw/odm/2003">
 <g id="Слой_x0020_1">
  <metadata id="CorelCorpID_0Corel-Layer"/>
  <path class="fil0 str0" d="M6333.29 5372.89l-264.73 225.11c-0.47,-151.92 31.22,-203.12 -41.06,-307.45 -156.99,-58.96 -393.58,2.01 -556.11,-26.48 322.7,-449.72 196.52,-382.36 332.12,-694.15l48.75 -960.76c374.91,22.09 739.37,-61.76 951.14,105.75 163.94,129.72 132.82,361.63 134.68,519.2 4.79,405.98 105.4,902.94 -299.52,1004.99 -225.9,56.95 -161.01,-31.19 -305.27,133.79zm-4186.72 -1012.68c21.5,95.48 46.67,155.86 104.66,212.84l33.65 29.92c48.12,40.89 -5.68,8.58 68.18,49.02 102.55,39.67 171.8,66.87 293.1,56.71 64.07,148.42 410.59,743.53 584.55,819.01 425.48,306.28 1045.41,440.74 1479.36,231.11 127.94,-19.34 264.93,-99.16 345.32,-150.38 53.85,-34.29 98.56,-63.87 139,-91.74 71.75,-49.44 108.57,-113.44 147.65,-115.86 155.31,51.67 366.68,59.38 557.6,49.53 -6.72,167.81 -26.11,212.62 82.27,311.65 71.9,11.48 137.83,13.04 194.31,-19.62 66,-38.18 201.8,-237.5 359.87,-313.99 722.91,-119.96 576.2,-627.7 577.98,-1342.03 0.45,-171.25 5.31,-243.7 -96.32,-395.15 -57.85,-86.23 -160.15,-172.27 -256.13,-211.47 -179.51,-73.32 -690.85,-66.13 -911.07,-49.66 -25.29,-339.54 -102.33,-651.38 -299.72,-917.05 -25.54,-34.37 -8.21,-23.28 -36.99,-41.86 -198.06,-168.4 -205.57,-281.51 -479.75,-406.25 -379.8,-291.04 -1191.6,-279.34 -1667.73,26.48l-226.2 154 -316.37 377.24c-134.27,214.55 -255.59,503.63 -251.2,810.93 -168.3,14.85 -201.18,48.45 -307.37,127.45 -76.77,70.64 -46.94,20.43 -98.61,127.66 -29.98,62.19 -44.36,129.83 -47.81,208.75 -4.33,99.82 -9.69,392.27 27.77,462.76zm253.95 -673.59c33.67,-55.12 91.99,-67.42 172.64,-74.51l13.32 810.86 21.3 115.12 -165.26 -38.66c-4.44,-3.94 -10.69,-8.48 -13.88,-11.11l-39.03 -32.53c-150.43,-139.89 -87.5,-297.85 -85.99,-495.34 0.52,-70.17 -4.19,-97.81 18.82,-165.23 19.64,-57.5 22.12,-82.44 78.08,-108.6zm3134.27 -846.29c277.77,594.38 60.74,1011.07 122.56,1586.13 -45.18,95.34 -37.54,329.42 -232.57,608.14 -68.81,98.31 -165.06,220.42 -257.2,286.89 -52.36,37.76 -93.6,80.54 -154.27,117.68 -510.77,312.68 -1161.45,317.04 -1653.1,-46.39 -26.05,-18.38 -108.4,-86.76 -133.49,-87.38l-201.48 -246.65c-167.86,-230.82 -193.82,-457.36 -254.24,-523.89 20.35,-202.44 -64.27,-876.98 -16.66,-1203.97 41.53,-285.11 113.01,-437.15 251.78,-654.15 174.71,-273.21 550.32,-536.8 918.96,-609.72 428.85,-84.82 662.26,-1.83 1016.67,139.35 299.62,212.19 397.51,338.59 593.04,633.96zm-1826.88 1712.06c100.89,173.34 641.53,120.68 794.56,38.34 75.3,-242.59 -203.36,-128.54 -371.2,-122.76 -197.96,6.82 -382.7,-93.13 -423.36,84.42zm2345.55 -255.16l-1.95 135.28c29.33,18.72 0.91,12.55 49.46,27.15l246.31 6.05c107.95,-1.61 225.65,25.96 244.25,-70.54 22.46,-116.71 -267.73,-125.95 -436.26,-112.37 -45.85,3.7 -82.71,9.08 -101.81,14.43zm-909.75 1609.88c-26.93,23.91 -47.02,-33.94 -43.69,72.3 4.24,134.81 172.54,-0.99 601.73,284.42 20.36,13.54 60.92,41.56 74.11,52.76 231.68,196.55 142.23,102.23 296.92,333.76 34.19,51.15 89.71,126.11 153.33,65.76 118.12,-112 -273.46,-477.57 -387.24,-566.63 -114.8,-89.91 -485.43,-262.23 -612.87,-273.04 -117.45,-9.96 -57.7,8.83 -82.29,30.67zm-1942.33 -26.23c-160,31.07 -245.56,70.19 -377.3,138.18l-212.78 124.69c-242.42,177.7 -145.05,65.43 -310.53,300.76 -241.35,343.23 -6.05,313.95 47.43,257.51 6.55,-6.91 129.65,-234.77 203.62,-300.9 358.6,-320.62 796.39,-310.01 808.77,-447.96 9.52,-106.02 -77.39,-88.17 -159.21,-72.28zm1566.99 -2017.57c-58.15,-201.88 81.1,-322.18 207.35,-207.24 57.8,52.64 38.41,170.34 -4.24,209.49 -53.65,49.27 -128.68,21.92 -203.11,-2.25zm18.39 -420.52c-391.33,104.14 -231.8,742.05 185.05,613.69 64.09,-19.74 141.55,-90.1 174.5,-142.3 137.14,-217.32 -57.45,-551.77 -359.55,-471.39zm-1303.22 186.85c66.1,-8.87 114.63,-0.44 148.5,17.9 105.37,57.06 68.53,210.36 -25.84,239.84 -77.66,24.27 -129.13,1.91 -154.15,-41.8 -31.44,-54.92 -21.12,-143.54 31.49,-215.94zm-23.63 -178.17c-267.98,94.81 -267.6,374.35 -126.95,525.17 77.24,82.79 196.67,126.85 337.33,80.21 136.27,-45.15 245.54,-223.45 183.9,-413.97 -16.46,-50.85 -49.11,-99.5 -93.27,-137.16 -74.86,-63.82 -182.74,-96.1 -301.01,-54.25z"/>
 </g>
</svg>
