<?xml version="1.0" encoding="UTF-8"?>
<!DOCTYPE svg PUBLIC "-//W3C//DTD SVG 1.1//EN" "http://www.w3.org/Graphics/SVG/1.1/DTD/svg11.dtd">
<!-- Creator: CorelDRAW -->
<?xml-stylesheet href="ic-clarity.css" type="text/css"?>
<svg xmlns="http://www.w3.org/2000/svg" xml:space="preserve" width="86.6986mm" height="86.6986mm" version="1.1" style="shape-rendering:geometricPrecision; text-rendering:geometricPrecision; image-rendering:optimizeQuality; fill-rule:evenodd; clip-rule:evenodd"
viewBox="0 0 8669.86 8669.86"
 xmlns:xlink="http://www.w3.org/1999/xlink"
 xmlns:xodm="http://www.corel.com/coreldraw/odm/2003">
 <g id="Слой_x0020_1">
  <metadata id="CorelCorpID_0Corel-Layer"/>
  <path class="fil0 str0" d="M5772.07 5037.79c163.24,41.33 298.75,150.3 400.42,275.43 150.96,185.77 210.62,446.48 137.58,710.56 -33.32,112.46 -76.97,170.78 -116,269.84 57.39,24.24 473.11,389.6 396.68,487.05 -70.06,48.33 -120.71,42.3 -180.81,-12.21l-349.79 -356.3c-211.74,192.41 -537.46,231.76 -796.9,118.93 -554.74,-241.3 -641.35,-971.68 -199.51,-1340.95 211.72,-176.93 509.99,-202.56 708.33,-152.35zm-2171.48 -943.63c211.79,1.61 348.88,-30.59 397.02,154.08 51.41,96.18 13.33,794.48 20.53,968.17l10.23 1393.55 201.61 -4.59 3.49 -1197.53c20.31,-494.49 -6.74,-1032.59 -2.22,-1534.75 4.47,-497.08 -68.62,-636.59 590.26,-586.11 133.79,10.26 178.93,64.96 211.1,173.49 29.44,96.72 3.91,1121.2 6.55,1385.5 1.02,104.21 5.76,150.86 -74.6,166.24 -43.8,8.35 -22.02,0.44 -57.83,-7.4 -45.16,-90.12 -32.23,-451.55 -26.68,-586.94l-15.97 -949.39 -432 15.23c-57.54,98.3 -27.44,1650.75 -27.44,1650.75l1.93 1479.53c144.71,-6.13 290.05,-2.46 434.81,-4.64 88.54,-1.32 160.89,-17.21 188.65,59.93 32.12,89.3 -16.94,107.31 -86.27,113.93 -234.76,22.48 -616.82,-0.71 -867.74,-0.88 -276.53,-0.17 -1556.23,33 -1714.27,-12.21 -201.83,-27.53 -156.52,-246.77 -157.84,-437.54 -1.76,-253.24 -60,-1332.6 47.26,-1452.02 96.03,-106.92 210.96,-80.36 378.2,-80.56 178.3,-0.19 285.66,-8.61 336.73,128.11l34 54.83 -0.78 812.28c0.56,215.45 23.68,624.83 -10.13,817.04l228.39 8.91 -4.91 -847.65c-0.39,-379.69 -48.87,-1154.72 10.38,-1484.88 40.1,-185.89 176.83,-195.99 377.54,-194.48zm1921.37 -1809.69c778.15,-9.5 559.23,-1.03 596.85,1263.2l-4.49 1069.94c6.78,109.89 19.09,200.87 -21.43,272.3 -80.56,3.61 -130.58,33.05 -128.87,-136.04l-2.88 -618.75c-0.98,-521.91 -5.76,-1555.4 -21.83,-1611.76 -33.19,-116.47 -433.29,-62.72 -492.85,-40.77l-14.9 2258.68c-20.55,38.62 -10.49,63.74 -77.57,67.89 -105.09,6.54 -63.52,-21.24 -71.77,-44.97l-13.79 -1800.51c-0.05,-295.91 -83.08,-675.11 253.53,-679.21zm53.17 2961.84c307.84,0 557.4,249.58 557.4,557.43 0,307.87 -249.56,557.45 -557.4,557.45 -307.85,0 -557.43,-249.58 -557.43,-557.45 0,-307.85 249.58,-557.43 557.43,-557.43zm-2105.53 -988.89c198.95,0 420.41,-42.11 420.41,111.68l0 2127.35c0,153.82 -221.46,111.68 -420.41,111.68 -61.42,0 -111.68,-50.24 -111.68,-111.68l0 -2127.35c0,-61.44 50.26,-111.68 111.68,-111.68zm-1017.48 735.73c184.38,0 389.6,-39.04 389.6,103.64l0 1397.25c0,142.7 -205.22,103.64 -389.6,103.64 -57.02,0 -103.65,-46.62 -103.65,-103.64l0 -1397.25c0,-57.02 46.63,-103.64 103.65,-103.64z"/>
 </g>
</svg>
