<svg xmlns="http://www.w3.org/2000/svg" width="197" height="210" fill="none" viewBox="0 0 197 210"><path fill="#000" fill-rule="evenodd" d="M64.09 27.175c9.745-9.442 17.983-17.41 22.23-21.69 8.494-8.549 17.348-4.674 19.113-1.232 5.198 2.161 13.896 15.317 20.071 19.162-1.643-16.621 5.395-14.027 20.047-14.406 16.951-.44 15.823 1.756 15.786 17.756-.041 17.733-.998 23.749.475 28.04 3.799 11.066 24.272 24.706 32.314 34.539 1.893 2.317 2.178 5.206.285 12.824l-17.159.587c.285 6.995.427 42.379-.002 67.509.068 11.713-.191 21.661-1.139 25.237-1.538 6.728-4.994 9.776-11.521 11.842-11.524 3.648-29.102 1.64-40.751 1.71-21.217.13-42.99.762-64.14.319-6.955-.286-22.188.943-27.44-.41-6.595-1.699-12.307-7.321-13.142-14.215l-.858-91.827c-4.013-.102-10.482.74-13.968-.87-3.189-1.472-5.268-5.849-3.045-10.46C4.352 85.154 39.16 51.334 64.09 27.176m37.118 56.99c22.859 0 41.39 18.532 41.39 41.39 0 22.859-18.531 41.39-41.39 41.39-22.858 0-41.39-18.531-41.39-41.39 0-22.858 18.532-41.39 41.39-41.39m0-10.89c28.873 0 52.28 23.407 52.28 52.28s-23.407 52.28-52.28 52.28-52.28-23.407-52.28-52.28 23.407-52.28 52.28-52.28M47.212 56.603c-8.479 8.32-16.95 16.687-25.193 25.242-2.944 3.055-5.884 6.149-8.694 9.33-.635.718-1.506 1.673-2.279 2.598 2.626.018 5.973-.203 7.448-.166a9.32 9.32 0 0 1 9.082 9.226l.85 91.179c.563 2.875 3.432 5.227 6.155 5.928 2.393.597 8.08.361 10.65.312 4.898-.096 9.965-.389 14.756-.191 21.199.443 42.503-.195 63.796-.324 10.772-.065 27.927 1.911 37.995-1.275 3.288-1.042 4.479-1.661 5.251-5.036.026-.11.048-.203.077-.311.502-1.936.568-5.573.648-7.601.2-5.054.209-10.139.18-15.196l.001-.213c.231-13.457.286-26.925.268-40.384-.012-8.781.098-17.819-.26-26.586-.104-2.574.727-4.827 2.479-6.716 1.752-1.888 3.936-2.885 6.511-2.974l8.169-.28c-4.412-4.773-10.386-9.532-15.005-13.747-6.302-5.752-14.28-13.381-17.097-21.588-1.339-3.901-1.367-8.06-1.308-12.137.09-6.323.315-12.618.329-18.95.004-1.641.182-5.71.032-8.414-2.117-.143-5.013-.04-6.261-.008-1.953.05-8.07-.16-11.206.12-.048 1.405.106 3.22.189 4.057.358 3.619-1.264 6.909-4.352 8.828-3.088 1.92-6.756 1.919-9.842-.003-4.376-2.723-8.401-7.388-11.825-11.238-1.506-1.693-5.236-6.133-7.118-7.324-1.586-.7-2.84-1.719-3.794-3.089-1.582-.494-4.048 1.506-4.914 2.378-14.951 15.06-30.556 29.675-45.718 44.553M89.31 133.27c6.818 3.854 9.151 12.724 16.461 3.761l12.591-14.542c1.354-1.4 1.05-.777 2.301-2.136l5.806-6.873c6.812-6.766 2.772-10.761-.755-10.163-2.564.436-15.248 15.353-17.902 18.598l-7.761 9.247c-2.055-2.364-5.848-6.422-9.836-7.386-2.418-.089-20.89 13.05-16.892 18.279 4.661 2.9 6.771.287 9.19-1.993 2.526-2.383 4.609-4.271 6.797-6.792" clip-rule="evenodd"/><path stroke="#000" stroke-miterlimit="22.926" stroke-width=".64" d="M64.09 27.175c9.745-9.442 17.983-17.41 22.23-21.69 8.494-8.549 17.348-4.674 19.113-1.232 5.198 2.161 13.896 15.317 20.071 19.162-1.643-16.621 5.395-14.027 20.047-14.406 16.951-.44 15.823 1.756 15.786 17.756-.041 17.733-.998 23.749.475 28.04 3.799 11.066 24.272 24.706 32.314 34.539 1.893 2.317 2.178 5.206.285 12.824l-17.159.587c.285 6.995.427 42.379-.002 67.509.068 11.713-.191 21.661-1.139 25.237-1.538 6.728-4.994 9.776-11.521 11.842-11.524 3.648-29.102 1.64-40.751 1.71-21.217.13-42.99.762-64.14.319-6.955-.286-22.188.943-27.44-.41-6.595-1.699-12.307-7.321-13.142-14.215l-.858-91.827c-4.013-.102-10.482.74-13.968-.87-3.189-1.472-5.268-5.849-3.045-10.46C4.352 85.154 39.16 51.334 64.09 27.176Zm37.118 56.99c22.859 0 41.39 18.532 41.39 41.39 0 22.859-18.531 41.39-41.39 41.39-22.858 0-41.39-18.531-41.39-41.39 0-22.858 18.532-41.39 41.39-41.39Zm0-10.89c28.873 0 52.28 23.407 52.28 52.28s-23.407 52.28-52.28 52.28-52.28-23.407-52.28-52.28 23.407-52.28 52.28-52.28ZM47.212 56.603c-8.479 8.32-16.95 16.687-25.193 25.242-2.944 3.055-5.884 6.149-8.694 9.33-.635.718-1.506 1.673-2.279 2.598 2.626.018 5.973-.203 7.448-.166a9.32 9.32 0 0 1 9.082 9.226l.85 91.179c.563 2.875 3.432 5.227 6.155 5.928 2.393.597 8.08.361 10.65.312 4.898-.096 9.965-.389 14.756-.191 21.199.443 42.503-.195 63.796-.324 10.772-.065 27.927 1.911 37.995-1.275 3.288-1.042 4.479-1.661 5.251-5.036.026-.11.048-.203.077-.311.502-1.936.568-5.573.648-7.601.2-5.054.209-10.139.18-15.196l.001-.213c.231-13.457.286-26.925.268-40.384-.012-8.781.098-17.819-.26-26.586-.104-2.574.727-4.827 2.479-6.716 1.752-1.888 3.936-2.885 6.511-2.974l8.169-.28c-4.412-4.773-10.386-9.532-15.005-13.747-6.302-5.752-14.28-13.381-17.097-21.588-1.339-3.901-1.367-8.06-1.308-12.137.09-6.323.315-12.618.329-18.95.004-1.641.182-5.71.032-8.414-2.117-.143-5.013-.04-6.261-.008-1.953.05-8.07-.16-11.206.12-.048 1.405.106 3.22.189 4.057.358 3.619-1.264 6.909-4.352 8.828-3.088 1.92-6.756 1.919-9.842-.003-4.376-2.723-8.401-7.388-11.825-11.238-1.506-1.693-5.236-6.133-7.118-7.324-1.586-.7-2.84-1.719-3.794-3.089-1.582-.494-4.048 1.506-4.914 2.378-14.951 15.06-30.556 29.675-45.718 44.553ZM89.31 133.27c6.818 3.854 9.151 12.724 16.461 3.761l12.591-14.542c1.354-1.4 1.05-.777 2.301-2.136l5.806-6.873c6.812-6.766 2.772-10.761-.755-10.163-2.564.436-15.248 15.353-17.902 18.598l-7.761 9.247c-2.055-2.364-5.848-6.422-9.836-7.386-2.418-.089-20.89 13.05-16.892 18.279 4.661 2.9 6.771.287 9.19-1.993 2.526-2.383 4.609-4.271 6.797-6.792Z" clip-rule="evenodd"/></svg>