<svg xmlns="http://www.w3.org/2000/svg" width="207" height="198" fill="none" viewBox="0 0 207 198"><path fill="#000" fill-rule="evenodd" d="m86.366 22.315 59.288.042c7.234-.423 15.525-.002 22.896.006 8.181.01 14.426-.465 17.128 5.704 4.574 3.347 2.439 13.798 2.524 19.729 3.981-.191 7.292-.722 10.325.904 2.722-.244 3.729 1.249 5.099 2.938 1.235 1.523.853.86 1.749 2.884.364.825.695 2.02 1.042 2.904l-.576 28.784c-.04 26.662.417 63.03.484 74.666.089 15.666 3.234 33.673-16.298 35.748-13.159 1.399-37.81.518-51.759.154l-50.63.067c-17.922.009-52.19.986-68.4.34-5.287-.211-13.942-2.675-14.712-8.592-5.504-6.136-3.479-44.675-3.435-55.76.078-19.372-.79-39.665-.207-58.805.132-11.588-1.706-52.373.626-60.236C6.653-3.563 30.142.796 48.233.835 60.83.863 64.964-1.017 71.95 6.943c5.537 6.309 8.605 14.51 14.416 15.372m27.158 32.237c27.113 3.77 51.437 41.634 36.722 75.26-18.964 43.336-69.067 36.02-76.99 24.762-15.513-5.093-33.579-39.838-20.603-68.777 11.385-25.395 39.01-38.699 60.871-31.245M84.997 31.327C74.379 29.75 71.054 20.045 64.948 13.088c-1.158-1.318-2.35-2.69-4.15-2.963-3.434-.521-8.96.034-12.585.026-8.784-.02-18.405-1.174-27.064-.113-4.527.554-9.266 1.536-10.704 6.39-.592 2.215-.63 6.794-.699 9.148-.163 5.711-.125 11.45-.054 17.164.13 10.419.626 20.997.508 31.393 0 .063-.002.116-.004.179-.594 19.503.288 39.047.21 58.558-.036 9.185-.464 18.331-.387 27.54.036 4.318.237 18.474 1.915 22.529a8.7 8.7 0 0 1 1.631 3.371c1.434.931 4.695 1.513 6.044 1.566 10.936.436 22.12.214 33.068.075 11.645-.147 23.304-.407 34.948-.422l50.631-.067c.089 0 .166.001.256.003 8.673.227 17.342.499 26.02.581 7.986.076 16.576.157 24.512-.686 4.329-.46 6.41-1.516 7.441-5.728 1.433-5.855.559-14.565.524-20.702-.142-24.914-.522-49.816-.484-74.733l.002-.173.543-27.157a12 12 0 0 0-.222-.593l-.186-.428a9 9 0 0 1-2.49-.916c-.83-.237-4.515.123-5.524.171-2.617.126-4.916-.721-6.825-2.516-1.911-1.794-2.899-4.036-2.936-6.657-.034-2.4.78-10.488.257-13.208a8.8 8.8 0 0 1-1.907-2.712c-1.822-.478-7.204-.327-8.697-.329-7.413-.008-14.947-.455-22.342-.022a9 9 0 0 1-.582.016l-59.289-.245a9 9 0 0 1-1.33-.101m20.508 30.022c21.5 1.166 38.37 20.865 40.959 43.93l-41.093.031zm-4.169 53.001c2.869-2.964 3.816-1.982 9.539-1.958l35.84-.145c.352 22.989-24.442 45.787-51.114 42.816-11.462-1.277-16.66-6.834-21.289-8.827-.903-1.661.739-.816-1.977-2.192 9.874-9.735 18.767-19.991 29.001-29.694m-3.1-53.969c-1.377 5.593.462 33.956-.282 43.235-.098 1.239-.15 1.259-.286 2.182-.223 1.499-.192 1.347-.213 1.172-.013-.105-.092.352-.109.533-3.138 1.648-13.184 12.817-15.87 15.533-3.728 3.768-11.223 12.767-14.898 14.78-4.448-4.319-8.758-14.451-9.873-22.361-4.033-28.62 15.476-53.194 41.53-55.074" clip-rule="evenodd"/><path stroke="#000" stroke-miterlimit="22.926" stroke-width=".64" d="m86.366 22.315 59.288.042c7.234-.423 15.525-.002 22.896.006 8.181.01 14.426-.465 17.128 5.704 4.574 3.347 2.439 13.798 2.524 19.729 3.981-.191 7.292-.722 10.325.904 2.722-.244 3.729 1.249 5.099 2.938 1.235 1.523.853.86 1.749 2.884.364.825.695 2.02 1.042 2.904l-.576 28.784c-.04 26.662.417 63.03.484 74.666.089 15.666 3.234 33.673-16.298 35.748-13.159 1.399-37.81.518-51.759.154l-50.63.067c-17.922.009-52.19.986-68.4.34-5.287-.211-13.942-2.675-14.712-8.592-5.504-6.136-3.479-44.675-3.435-55.76.078-19.372-.79-39.665-.207-58.805.132-11.588-1.706-52.373.626-60.236C6.653-3.563 30.142.796 48.233.835 60.83.863 64.964-1.017 71.95 6.943c5.537 6.309 8.605 14.51 14.416 15.372Zm27.158 32.237c27.113 3.77 51.437 41.634 36.722 75.26-18.964 43.336-69.067 36.02-76.99 24.762-15.513-5.093-33.579-39.838-20.603-68.777 11.385-25.395 39.01-38.699 60.871-31.245ZM84.997 31.327C74.379 29.75 71.054 20.045 64.948 13.088c-1.158-1.318-2.35-2.69-4.15-2.963-3.434-.521-8.96.034-12.585.026-8.784-.02-18.405-1.174-27.064-.113-4.527.554-9.266 1.536-10.704 6.39-.592 2.215-.63 6.794-.699 9.148-.163 5.711-.125 11.45-.054 17.164.13 10.419.626 20.997.508 31.393 0 .063-.002.116-.004.179-.594 19.503.288 39.047.21 58.558-.036 9.185-.464 18.331-.387 27.54.036 4.318.237 18.474 1.915 22.529a8.7 8.7 0 0 1 1.631 3.371c1.434.931 4.695 1.513 6.044 1.566 10.936.436 22.12.214 33.068.075 11.645-.147 23.304-.407 34.948-.422l50.631-.067c.089 0 .166.001.256.003 8.673.227 17.342.499 26.02.581 7.986.076 16.576.157 24.512-.686 4.329-.46 6.41-1.516 7.441-5.728 1.433-5.855.559-14.565.524-20.702-.142-24.914-.522-49.816-.484-74.733l.002-.173.543-27.157a12 12 0 0 0-.222-.593l-.186-.428a9 9 0 0 1-2.49-.916c-.83-.237-4.515.123-5.524.171-2.617.126-4.916-.721-6.825-2.516-1.911-1.794-2.899-4.036-2.936-6.657-.034-2.4.78-10.488.257-13.208a8.8 8.8 0 0 1-1.907-2.712c-1.822-.478-7.204-.327-8.697-.329-7.413-.008-14.947-.455-22.342-.022a9 9 0 0 1-.582.016l-59.289-.245a9 9 0 0 1-1.33-.101Zm20.508 30.022c21.5 1.166 38.37 20.865 40.959 43.93l-41.093.031zm-4.169 53.001c2.869-2.964 3.816-1.982 9.539-1.958l35.84-.145c.352 22.989-24.442 45.787-51.114 42.816-11.462-1.277-16.66-6.834-21.289-8.827-.903-1.661.739-.816-1.977-2.192 9.874-9.735 18.767-19.991 29.001-29.694Zm-3.1-53.969c-1.377 5.593.462 33.956-.282 43.235-.098 1.239-.15 1.259-.286 2.182-.223 1.499-.192 1.347-.213 1.172-.013-.105-.092.352-.109.533-3.138 1.648-13.184 12.817-15.87 15.533-3.728 3.768-11.223 12.767-14.898 14.78-4.448-4.319-8.758-14.451-9.873-22.361-4.033-28.62 15.476-53.194 41.53-55.074Z" clip-rule="evenodd"/></svg>